{"asset":{"version":"2.0","generator":"trama gen-retro-models"},"scene":0,"scenes":[{"nodes":[0]}],"nodes":[{"mesh":0}],"meshes":[{"primitives":[{"attributes":{"POSITION":0,"NORMAL":1},"indices":2}]}],"accessors":[{"bufferView":0,"componentType":5126,"count":9705,"type":"VEC3","min":[-1.3569657802581787,-0.9708232283592224,-1.065956711769104],"max":[1.3783795833587646,0.9402557015419006,1.083189845085144]},{"bufferView":1,"componentType":5126,"count":9705,"type":"VEC3"},{"bufferView":2,"componentType":5125,"count":57660,"type":"SCALAR"}],"bufferViews":[{"buffer":0,"byteOffset":0,"byteLength":116460,"target":34962},{"buffer":0,"byteOffset":116460,"byteLength":116460,"target":34962},{"buffer":0,"byteOffset":232920,"byteLength":230640,"target":34963}],"buffers":[{"byteLength":463560,"uri":"data:application/octet-stream;base64,"}]}